<svg
  xmlns="http://www.w3.org/2000/svg"
  width="800"
  height="800"
  viewBox="1300 -50 900 1050"
>
  <rect x="0" y="0" width="100%" height="100%" fill="#1e1e1e"/>
  <g id="physui_rewrite_0_0" clip-path="url(#physui_clip_0_0)"><rect x="1591.176" y="-21.746" width="452.816" height="529.599" fill="url(#physui_pat_0_0)"/></g>

<defs id="physui_defs_0_0"><pattern id="physui_pat_0_0" patternUnits="userSpaceOnUse" width="22.147" height="22.147" patternTransform="rotate(135.218)"><rect x="0" y="0" width="22.147" height="22.147" fill="none"/><line x1="0" y1="0" x2="0" y2="22.147" stroke="#ffffff" stroke-width="12.596" /></pattern><clipPath id="physui_clip_0_0"><path d="M1797.872 -21.746L1847.434 -20.432L1851.940 -16.489L1884.606 -11.233L1893.617 -7.290L1894.743 -2.034L1906.008 -2.034L1913.892 7.165L1921.777 7.165L1930.788 12.422L1931.915 18.992L1945.432 22.935L1947.685 32.134L1958.949 34.762L1962.891 45.932L1972.466 47.904L1976.408 52.503L1976.408 60.388L1982.603 61.045L1989.925 69.587L1989.925 77.472L2002.315 87.985L2002.315 95.870L2010.200 101.126L2012.453 115.582L2018.085 116.896L2021.464 136.608L2027.096 139.237L2033.855 160.263L2036.108 168.148L2036.108 183.917L2040.613 189.174L2041.740 211.514L2043.992 212.829L2041.740 290.363L2036.108 299.562L2036.108 317.960L2029.349 338.986L2018.085 352.128L2018.085 367.897L2014.706 375.782L1961.202 448.717L1931.915 472.372L1925.156 476.314L1911.640 476.314L1900.375 489.456L1882.353 497.340L1866.583 497.340L1829.412 507.854L1793.367 506.539L1771.965 502.597L1767.459 497.340L1753.942 497.340L1747.184 494.712L1746.058 490.770L1726.909 480.257L1710.013 476.314L1708.886 469.743L1699.875 469.743L1693.116 464.487L1691.990 456.602L1684.105 456.602L1676.783 444.118L1669.462 443.461L1662.140 434.919L1662.140 428.348L1655.945 427.691L1649.750 420.463L1643.554 411.921L1638.486 406.008L1637.359 394.180L1631.164 393.523L1626.095 384.981L1626.095 375.782L1619.337 373.154L1612.015 354.099L1608.073 345.557L1608.073 332.416L1603.567 331.101L1601.314 308.761L1596.809 306.133L1595.682 299.562L1592.303 278.536L1591.176 218.085L1593.429 202.315L1596.809 198.373L1596.809 178.661L1601.314 161.577L1610.325 151.064L1623.842 103.755L1701.001 15.050L1724.656 0.594L1739.299 0.594L1751.690 -11.233L1779.850 -15.175L1797.872 -21.746Z" /></clipPath></defs></svg>
